# xmcd
#
# Track frame offsets:
#	150
#	14432
#	27895
#	41450
#	57745
#	69035
#	84167
#	103555
#	125625
#	139327
#	156562
#	176305
#
# Disc length: 2641 seconds
#
# Revision: 1
# Processed by: cddbd v1.5.1PL0 Copyright (c) Steve Scherf et al.
# Submitted via: dBpowerAMP V4.0
#
DISCID=9b0a4f0c
DTITLE=U.P.O. - The Heavy
DYEAR=2004
DGENRE=Rock
TTITLE0=Lies
TTITLE1=I Feel
TTITLE2=Murder @ the Movies
TTITLE3=The Fall
TTITLE4=It's Alright
TTITLE5=Always The Rain
TTITLE6=Go
TTITLE7=Free
TTITLE8=N.Y.W.M.
TTITLE9=Dive
TTITLE10=Walk on Water
TTITLE11=The Underground
EXTD=
EXTT0=
EXTT1=
EXTT2=
EXTT3=
EXTT4=
EXTT5=
EXTT6=
EXTT7=
EXTT8=
EXTT9=
EXTT10=
EXTT11=
PLAYORDER=
